<?xml version="1.0" encoding="UTF-8"?>
<svg version="1.1" xmlns="http://www.w3.org/2000/svg" width="500" height="500">
<path d="M0 0 C122.76 0 245.52 0 372 0 C373.7213061 5.16391829 373.05353552 10.59291236 373 16 C377.95 16 382.9 16 388 16 C389.08085785 31.48072536 389.13553658 46.91218323 389.09871864 62.42365861 C389.09186931 65.64670263 389.08884671 68.86974693 389.08559561 72.09279627 C389.02696722 127.58886676 388.76847064 183.08511522 388.55461884 238.58076656 C388.51150495 249.77527749 388.46913449 260.96979106 388.42724609 272.16430664 C388.4242591 272.96251372 388.4212721 273.7607208 388.41819459 274.58311597 C388.40320063 278.59091261 388.38821855 282.59870929 388.37324238 286.60650599 C388.25066956 319.40434442 388.12605724 352.20217478 388 385 C383.9475189 385.86731651 380.23906425 386.12896447 376.0859375 386.1328125 C375.39915924 386.13376923 374.71238098 386.13472595 374.00479126 386.13571167 C372.53379221 386.13639226 371.06279015 386.1345464 369.59179688 386.13037109 C367.48559426 386.12526796 365.37963104 386.13018402 363.2734375 386.13671875 C355.94455626 386.13910556 348.62503995 386.03632161 341.30052185 385.77294922 C314.05477757 384.80804372 286.81292891 384.85223011 259.55302787 384.8656745 C255.46788013 384.86747886 251.38273437 384.86710728 247.29758644 384.86618423 C246.61159924 384.866031 245.92561204 384.86587777 245.21883735 384.86571989 C243.82373899 384.86540005 242.42864062 384.86507584 241.03354225 384.8647473 C228.06957018 384.8619218 215.10560528 384.86513347 202.14163438 384.87054767 C191.09661662 384.87501807 180.05160937 384.87423207 169.0065918 384.86962891 C156.06955872 384.86423947 143.13253185 384.86219099 130.19549781 384.86524117 C128.80811012 384.86555961 127.42072243 384.86587398 126.03333473 384.86618423 C125.01031995 384.86641565 125.01031995 384.86641565 123.9666382 384.86665174 C119.2349206 384.8675035 114.50320708 384.86606629 109.7714901 384.86370468 C73.11319742 384.79373372 73.11319742 384.79373372 36.47419739 385.81643677 C29.72836289 386.09566455 22.65444782 386.28615378 16 385 C14.61773984 382.23547967 14.90474613 379.9538637 14.9375 376.875 C14.94652344 375.77929688 14.95554687 374.68359375 14.96484375 373.5546875 C14.97644531 372.71164062 14.98804687 371.86859375 15 371 C10.91100593 369.63700198 6.90349791 369.62046091 2.6171875 369.37890625 C1.75351562 369.25386719 0.88984375 369.12882812 0 369 C-1.36311701 366.27376598 -1.12539182 364.131178 -1.12584114 361.07756138 C-1.12844889 359.80747339 -1.13105664 358.5373854 -1.13374341 357.22880989 C-1.13158101 355.80615002 -1.12932433 354.38349028 -1.12698364 352.96083069 C-1.12813481 351.45981494 -1.1297223 349.95879947 -1.13171089 348.45778459 C-1.13590487 344.31791468 -1.1338132 340.17806766 -1.13072467 336.03819764 C-1.12847105 331.57937277 -1.13195 327.12055197 -1.13470459 322.66172791 C-1.1391618 313.92060628 -1.138186 305.17949322 -1.13529195 296.43837125 C-1.13303758 289.33651698 -1.13272554 282.23466512 -1.13381577 275.13281059 C-1.133969 274.12371625 -1.13412223 273.11462191 -1.13428011 272.07494895 C-1.13459982 270.02526121 -1.13492403 267.97557347 -1.1352527 265.92588573 C-1.13810738 246.68505901 -1.13482072 227.44423704 -1.12945233 208.20341109 C-1.12498498 191.68028275 -1.12575968 175.15716142 -1.13037109 158.6340332 C-1.13571823 139.46566112 -1.13783198 120.29729322 -1.13475883 101.1289205 C-1.13444027 99.08628206 -1.1341259 97.04364361 -1.13381577 95.00100517 C-1.13366149 93.99588115 -1.13350721 92.99075712 -1.13334826 91.95517479 C-1.13248348 84.8592407 -1.13394518 77.76330925 -1.13629532 70.66737556 C-1.13909508 62.02347158 -1.13835133 53.37957667 -1.13301457 44.73567373 C-1.13037986 40.32222736 -1.12936864 35.90879616 -1.13266373 31.49534988 C-1.13563141 27.45948971 -1.13402591 23.42365884 -1.12868617 19.38780134 C-1.12756401 17.92348394 -1.12814876 16.4591641 -1.13056196 14.99484826 C-1.13357941 13.01266043 -1.12990263 11.03046572 -1.12584114 9.04827976 C-1.12567879 7.94475747 -1.12551644 6.84123517 -1.12534916 5.70427281 C-1 3 -1 3 0 0 Z " fill="#FADE46" transform="translate(56,64)"/>
<path d="M0 0 C15.51 0 31.02 0 47 0 C58.19751166 14.55676516 58.19751166 14.55676516 61.8125 19.6875 C62.64668296 20.86490402 63.48134343 22.04196985 64.31640625 23.21875 C64.74840332 23.82847656 65.18040039 24.43820313 65.62548828 25.06640625 C73.22531253 35.75745564 80.97274545 46.34092177 88.76635742 56.89111328 C95.45240175 65.95106021 102.02736019 75.09036112 108.60449219 84.22949219 C114.6923875 92.68593036 120.80868741 101.11888909 127 109.5 C134.27942622 119.35407821 141.44830324 129.28574334 148.60449219 139.22949219 C154.6923875 147.68593036 160.80868741 156.11888909 167 164.5 C173.17392873 172.85757856 179.27256315 181.26708438 185.34277344 189.70019531 C187.10328601 192.14333445 188.8675938 194.5836967 190.6328125 197.0234375 C191.22763428 197.84577881 191.82245605 198.66812012 192.43530273 199.51538086 C193.57770694 201.09456327 194.72043237 202.67351338 195.86352539 204.25219727 C196.3764917 204.96174561 196.88945801 205.67129395 197.41796875 206.40234375 C197.86938232 207.02616943 198.3207959 207.64999512 198.78588867 208.29272461 C199.88699554 209.84109387 200.94608661 211.41912991 202 213 C202.495 107.565 202.495 107.565 203 0 C216.86 0 230.72 0 245 0 C245 94.71 245 189.42 245 287 C202 287 202 287 193.625 279.125 C192.40579319 276.62200559 191.18568029 274.11482077 190.13720703 271.53564453 C188.2263522 267.27498796 185.38344552 263.75622425 182.5625 260.0625 C181.47657569 258.5666205 180.39455807 257.06789742 179.31640625 255.56640625 C175.9046222 250.85759708 172.45507406 246.17709528 169 241.5 C161.72057378 231.64592179 154.55169676 221.71425666 147.39550781 211.77050781 C141.24670821 203.22947007 135.06694003 194.71408236 128.8125 186.25 C123.99605784 179.73131921 119.23977065 173.1755172 114.54296875 166.5703125 C106.55154225 155.33484157 98.42577605 144.19855572 90.23364258 133.10888672 C83.54759825 124.04893979 76.97263981 114.90963888 70.39550781 105.77050781 C68.78534508 103.53389879 67.17408996 101.29808081 65.5625 99.0625 C65.03817383 98.33409912 64.51384766 97.60569824 63.97363281 96.85522461 C61.03664843 92.78495704 58.07002289 88.7391496 55.0703125 84.71484375 C54.42247803 83.84400146 53.77464355 82.97315918 53.10717773 82.07592773 C51.84786143 80.38610879 50.58448265 78.69930817 49.31665039 77.01586914 C48.75196045 76.25781982 48.18727051 75.49977051 47.60546875 74.71875 C46.84979614 73.71231445 46.84979614 73.71231445 46.07885742 72.68554688 C45 71 45 71 45 69 C44.34 69 43.68 69 43 69 C43 140.94 43 212.88 43 287 C28.81 287 14.62 287 0 287 C0 192.29 0 97.58 0 0 Z " fill="#FADD46" transform="translate(109,98)"/>
<path d="M0 0 C18.15 0 36.3 0 55 0 C56.65 1.65 58.3 3.3 60 5 C61.93982133 6.66761207 63.89892434 8.31301183 65.875 9.9375 C67.38849863 11.18425932 68.9016424 12.43176204 70.39290613 13.70503318 C71.98625817 15.0400362 71.98625817 15.0400362 73.80759484 16.13907635 C76.86288298 18.24294116 78.70907636 19.85522924 79.64169014 23.52502036 C79.88491262 26.75192986 79.89896914 29.91287338 79.84178162 33.14865112 C79.84776259 34.38292693 79.85374356 35.61720274 79.85990578 36.88888085 C79.8694358 40.30824911 79.8475976 43.72480581 79.81245935 47.14383364 C79.78220447 50.83292296 79.79246146 54.52192685 79.79777527 58.21110535 C79.8014442 64.60039683 79.77949897 70.98918759 79.7401104 77.37835312 C79.68319893 86.61590171 79.66498811 95.8532084 79.65619446 105.09091331 C79.64087743 120.07864975 79.59430222 135.06611936 79.52807617 150.05371094 C79.46381417 164.61196559 79.41426959 179.17014776 79.38452148 193.72851562 C79.38268242 194.62602495 79.38084336 195.52353428 79.37894856 196.44824086 C79.36981324 200.95082205 79.3609673 205.45340374 79.35226524 209.95598578 C79.2797087 247.30417891 79.15642596 284.65206867 79 322 C71.14264254 322.41994643 63.28797555 322.73823754 55.42216969 322.93261909 C51.76736678 323.02601429 48.12030961 323.15215573 44.4699707 323.35791016 C21.0029962 324.6462089 21.0029962 324.6462089 14.44671631 320.31213379 C10.31583244 316.22930415 7.65457573 311.57088462 5.18965149 306.35429382 C3.21360644 302.44374465 0.5948691 299.01627978 -2 295.5 C-2.99391396 294.09458483 -3.98515596 292.68727281 -4.97265625 291.27734375 C-9.71071659 284.56573403 -14.53865687 277.91880354 -19.35888672 271.26611328 C-22.61845318 266.76517667 -25.8697262 262.25824565 -29.12255859 257.75244141 C-31.84069523 253.98792435 -34.56081405 250.22487292 -37.28515625 246.46484375 C-43.06185843 238.48749311 -48.79419252 230.48245318 -54.45874023 222.42504883 C-58.85727244 216.17803802 -63.32621762 209.98304377 -67.8125 203.79882812 C-68.33070313 203.08404297 -68.84890625 202.36925781 -69.3828125 201.6328125 C-69.84059082 201.00262207 -70.29836914 200.37243164 -70.77001953 199.72314453 C-71.87812807 198.17073682 -72.94200855 196.58698718 -74 195 C-98.75 194.505 -98.75 194.505 -124 194 C-124 236.24 -124 278.48 -124 322 C-142.81 322 -161.62 322 -181 322 C-183.97 318.37 -186.94 314.74 -190 311 C-192.48545596 308.75049884 -192.48545596 308.75049884 -194.99043727 306.522874 C-201.90577047 299.9522641 -203.12512073 293.40730219 -203.4430542 284.07913208 C-203.51241124 279.49970241 -203.47581702 274.92875353 -203.39278746 270.35035634 C-203.34049856 266.72822656 -203.35853455 263.10631877 -203.36761475 259.48391724 C-203.37387827 253.22257626 -203.33653838 246.96274681 -203.26876068 240.70178604 C-203.1708353 231.64999557 -203.13994337 222.59892883 -203.12490478 213.54666613 C-203.09870305 198.85703206 -203.01901442 184.16820197 -202.90527344 169.47900391 C-202.79496334 155.21797684 -202.71010236 140.95716889 -202.65917969 126.69580078 C-202.65602701 125.81532822 -202.65287432 124.93485566 -202.64962611 124.02770211 C-202.63396457 119.61020727 -202.61880033 115.19271089 -202.60388327 110.77521348 C-202.47967555 74.18290827 -202.26848886 37.59151698 -202 1 C-194.23372727 0.87404278 -186.46770509 0.77925137 -178.70066011 0.72150958 C-175.09188575 0.69376022 -171.4838228 0.65628676 -167.87545776 0.59451294 C-126.6999323 -0.09160448 -126.6999323 -0.09160448 -110 13 C-107.00109974 16.12879255 -104.46842856 19.44375251 -102 23 C-101.162994 24.13558887 -100.32578927 25.27103132 -99.48828125 26.40625 C-98.77027344 27.4271875 -98.05226563 28.448125 -97.3125 29.5 C-96.46145186 30.70348889 -95.6098613 31.90659435 -94.7578125 33.109375 C-94.3134082 33.73779297 -93.86900391 34.36621094 -93.41113281 35.01367188 C-90.85782263 38.60774309 -88.2714854 42.1779522 -85.6875 45.75 C-84.57549921 47.28774478 -83.46352022 48.82550532 -82.3515625 50.36328125 C-81.51866699 51.51497803 -81.51866699 51.51497803 -80.66894531 52.68994141 C-79.03481701 54.95180829 -77.4036287 57.21576308 -75.7734375 59.48046875 C-70.22450027 67.1853087 -64.64176126 74.8628106 -59 82.5 C-52.80988881 90.87948458 -46.69525691 99.31107363 -40.60888672 107.76611328 C-38.45108682 110.76214805 -36.28917359 113.75520151 -34.12695312 116.74804688 C-32.50212904 118.99705308 -30.87801745 121.2465727 -29.25390625 123.49609375 C-27.07670977 126.51092519 -24.89677083 129.52374694 -22.71484375 132.53515625 C-22.16570312 133.29376953 -21.6165625 134.05238281 -21.05078125 134.83398438 C-20.03987474 136.23040607 -19.0282665 137.62632033 -18.015625 139.02148438 C-12.26932569 146.9630857 -6.65425903 154.98979971 -1 163 C-0.67 109.21 -0.34 55.42 0 0 Z M-195 7 C-195 101.71 -195 196.42 -195 294 C-180.81 294 -166.62 294 -152 294 C-152 222.06 -152 150.12 -152 76 C-151.34 76 -150.68 76 -150 76 C-149.7628125 76.70253906 -149.525625 77.40507812 -149.28125 78.12890625 C-147.76751469 81.52096557 -145.81525072 84.03244648 -143.5 86.9375 C-139.95264381 91.44839917 -136.50365497 96.00380272 -133.1875 100.6875 C-132.78047852 101.26145508 -132.37345703 101.83541016 -131.95410156 102.42675781 C-131.09404059 103.63983382 -130.2341832 104.85305419 -129.37451172 106.06640625 C-121.77468747 116.75745564 -114.02725455 127.34092177 -106.23364258 137.89111328 C-100.63614485 145.47602148 -95.11615144 153.11555308 -89.60888672 160.76611328 C-86.90987882 164.51359769 -84.20468506 168.25661201 -81.5 172 C-78.25868547 176.48610379 -75.01858046 180.97304831 -71.78515625 185.46484375 C-66.23195376 193.17462973 -60.64562795 200.85757631 -55 208.5 C-47.72057378 218.35407821 -40.55169676 228.28574334 -33.39550781 238.22949219 C-26.73621358 247.47963645 -20.0299141 256.69175516 -13.25708008 265.85913086 C-9.05682267 271.55035305 -4.8915419 277.26591452 -0.75 283 C0.07371094 284.13985352 0.07371094 284.13985352 0.9140625 285.30273438 C2.98687263 288.17783777 5.03354585 291.05031877 7 294 C21.19 294 35.38 294 50 294 C50 199.29 50 104.58 50 7 C36.14 7 22.28 7 8 7 C7.505 112.435 7.505 112.435 7 220 C3.7 215.38 0.4 210.76 -3 206 C-5.08023865 203.10182714 -7.16170945 200.20483825 -9.25 197.3125 C-9.78882813 196.56613281 -10.32765625 195.81976563 -10.8828125 195.05078125 C-15.47113581 188.70747714 -20.11470405 182.40581736 -24.76635742 176.10888672 C-31.45240175 167.04893979 -38.02736019 157.90963888 -44.60449219 148.77050781 C-50.6923875 140.31406964 -56.80868741 131.88111091 -63 123.5 C-70.27942622 113.64592179 -77.44830324 103.71425666 -84.60449219 93.77050781 C-90.6923875 85.31406964 -96.80868741 76.88111091 -103 68.5 C-110.29086917 58.6304316 -117.47664013 48.68689552 -124.63671875 38.72216797 C-125.73953329 37.1874614 -126.84297493 35.65320527 -127.94702148 34.11938477 C-128.96095619 32.71072499 -129.9736759 31.30118904 -130.98461914 29.89038086 C-136.5428748 22.17104708 -142.28876409 14.61498121 -148 7 C-163.51 7 -179.02 7 -195 7 Z " fill="#070601" transform="translate(304,91)"/>
<path d="M0 0 C122.76 0 245.52 0 372 0 C373.7213061 5.16391829 373.05353552 10.59291236 373 16 C377.95 16 382.9 16 388 16 C389.08085785 31.48072536 389.13553658 46.91218323 389.09871864 62.42365861 C389.09186931 65.64670263 389.08884671 68.86974693 389.08559561 72.09279627 C389.02696722 127.58886676 388.76847064 183.08511522 388.55461884 238.58076656 C388.51150495 249.77527749 388.46913449 260.96979106 388.42724609 272.16430664 C388.4242591 272.96251372 388.4212721 273.7607208 388.41819459 274.58311597 C388.40320063 278.59091261 388.38821855 282.59870929 388.37324238 286.60650599 C388.25066956 319.40434442 388.12605724 352.20217478 388 385 C383.9475189 385.86731651 380.23906425 386.12896447 376.0859375 386.1328125 C375.39915924 386.13376923 374.71238098 386.13472595 374.00479126 386.13571167 C372.53379221 386.13639226 371.06279015 386.1345464 369.59179688 386.13037109 C367.48559426 386.12526796 365.37963104 386.13018402 363.2734375 386.13671875 C355.94455626 386.13910556 348.62503995 386.03632161 341.30052185 385.77294922 C314.05477757 384.80804372 286.81292891 384.85223011 259.55302787 384.8656745 C255.46788013 384.86747886 251.38273437 384.86710728 247.29758644 384.86618423 C246.61159924 384.866031 245.92561204 384.86587777 245.21883735 384.86571989 C243.82373899 384.86540005 242.42864062 384.86507584 241.03354225 384.8647473 C228.06957018 384.8619218 215.10560528 384.86513347 202.14163438 384.87054767 C191.09661662 384.87501807 180.05160937 384.87423207 169.0065918 384.86962891 C156.06955872 384.86423947 143.13253185 384.86219099 130.19549781 384.86524117 C128.80811012 384.86555961 127.42072243 384.86587398 126.03333473 384.86618423 C125.01031995 384.86641565 125.01031995 384.86641565 123.9666382 384.86665174 C119.2349206 384.8675035 114.50320708 384.86606629 109.7714901 384.86370468 C73.11319742 384.79373372 73.11319742 384.79373372 36.47419739 385.81643677 C29.72836289 386.09566455 22.65444782 386.28615378 16 385 C14.61773984 382.23547967 14.90474613 379.9538637 14.9375 376.875 C14.94652344 375.77929688 14.95554687 374.68359375 14.96484375 373.5546875 C14.97644531 372.71164062 14.98804687 371.86859375 15 371 C10.91100593 369.63700198 6.90349791 369.62046091 2.6171875 369.37890625 C1.75351562 369.25386719 0.88984375 369.12882812 0 369 C-1.36311701 366.27376598 -1.12539182 364.131178 -1.12584114 361.07756138 C-1.12844889 359.80747339 -1.13105664 358.5373854 -1.13374341 357.22880989 C-1.13158101 355.80615002 -1.12932433 354.38349028 -1.12698364 352.96083069 C-1.12813481 351.45981494 -1.1297223 349.95879947 -1.13171089 348.45778459 C-1.13590487 344.31791468 -1.1338132 340.17806766 -1.13072467 336.03819764 C-1.12847105 331.57937277 -1.13195 327.12055197 -1.13470459 322.66172791 C-1.1391618 313.92060628 -1.138186 305.17949322 -1.13529195 296.43837125 C-1.13303758 289.33651698 -1.13272554 282.23466512 -1.13381577 275.13281059 C-1.133969 274.12371625 -1.13412223 273.11462191 -1.13428011 272.07494895 C-1.13459982 270.02526121 -1.13492403 267.97557347 -1.1352527 265.92588573 C-1.13810738 246.68505901 -1.13482072 227.44423704 -1.12945233 208.20341109 C-1.12498498 191.68028275 -1.12575968 175.15716142 -1.13037109 158.6340332 C-1.13571823 139.46566112 -1.13783198 120.29729322 -1.13475883 101.1289205 C-1.13444027 99.08628206 -1.1341259 97.04364361 -1.13381577 95.00100517 C-1.13366149 93.99588115 -1.13350721 92.99075712 -1.13334826 91.95517479 C-1.13248348 84.8592407 -1.13394518 77.76330925 -1.13629532 70.66737556 C-1.13909508 62.02347158 -1.13835133 53.37957667 -1.13301457 44.73567373 C-1.13037986 40.32222736 -1.12936864 35.90879616 -1.13266373 31.49534988 C-1.13563141 27.45948971 -1.13402591 23.42365884 -1.12868617 19.38780134 C-1.12756401 17.92348394 -1.12814876 16.4591641 -1.13056196 14.99484826 C-1.13357941 13.01266043 -1.12990263 11.03046572 -1.12584114 9.04827976 C-1.12567879 7.94475747 -1.12551644 6.84123517 -1.12534916 5.70427281 C-1 3 -1 3 0 0 Z M5 6 C5 124.14 5 242.28 5 364 C124.46 364 243.92 364 367 364 C367 245.86 367 127.72 367 6 C247.54 6 128.08 6 5 6 Z " fill="#000000" transform="translate(56,64)"/>
<path d="M0 0 C122.76 0 245.52 0 372 0 C373.7213061 5.16391829 373.05353552 10.59291236 373 16 C377.95 16 382.9 16 388 16 C389.08085785 31.48072536 389.13553658 46.91218323 389.09871864 62.42365861 C389.09186931 65.64670263 389.08884671 68.86974693 389.08559561 72.09279627 C389.02696722 127.58886676 388.76847064 183.08511522 388.55461884 238.58076656 C388.51150495 249.77527749 388.46913449 260.96979106 388.42724609 272.16430664 C388.4242591 272.96251372 388.4212721 273.7607208 388.41819459 274.58311597 C388.40320063 278.59091261 388.38821855 282.59870929 388.37324238 286.60650599 C388.25066956 319.40434442 388.12605724 352.20217478 388 385 C383.9475189 385.86731651 380.23906425 386.12896447 376.0859375 386.1328125 C375.4102623 386.13413177 374.7345871 386.13545105 374.03843689 386.1368103 C371.8172454 386.13873307 369.59617885 386.13235991 367.375 386.125 C366.61520844 386.12411377 365.85541687 386.12322754 365.07260132 386.12231445 C347.70574421 386.09873389 330.35527348 385.59950233 313 385 C313 384.67 313 384.34 313 384 C349.135 383.505 349.135 383.505 386 383 C386 262.55 386 142.1 386 18 C381.38 18 376.76 18 372 18 C372.00138269 20.70432677 372.00138269 20.70432677 372.00279331 23.4632864 C372.02442828 66.21309944 372.04092904 108.96291188 372.05106533 151.71272927 C372.05231611 156.96888658 372.05361042 162.22504388 372.05493164 167.48120117 C372.05532511 169.05088046 372.05532511 169.05088046 372.05572652 170.65227044 C372.06008364 187.61976209 372.06797141 204.58725036 372.0771528 221.55474 C372.08648818 238.95128552 372.09205536 256.34782927 372.09408849 273.7443772 C372.09546396 284.4880849 372.09981583 295.23178307 372.10791647 305.97548784 C372.11318251 313.33230148 372.11480462 320.68911016 372.11350138 328.04592555 C372.11285777 332.29709036 372.11387801 336.54823846 372.11920547 340.79940033 C372.12403923 344.68473286 372.12433881 348.57003732 372.12089889 352.45537109 C372.12047318 353.86722398 372.12176912 355.27907857 372.12488318 356.69092809 C372.1288469 358.59757219 372.12615648 360.50422677 372.12304783 362.41087246 C372.12342755 363.47370966 372.12380727 364.53654687 372.1241985 365.63159126 C372 368 372 368 371 369 C369.12342951 369.09761386 367.2431278 369.12371347 365.36402035 369.12304783 C364.13239066 369.12503888 362.90076097 369.12702993 361.63180918 369.12908131 C360.24737272 369.12622772 358.86293645 369.12328211 357.47850037 369.12025452 C356.02158259 369.12069009 354.56466489 369.12156474 353.10774761 369.12284368 C349.0852415 369.12509137 345.06276175 369.12106364 341.040259 369.11606562 C336.70962943 369.11176521 332.37900147 369.11320725 328.04837036 369.1139679 C320.53894635 369.11449339 313.02953101 369.11134392 305.52010918 369.10573006 C294.66261595 369.09761852 283.80512693 369.09500019 272.94763101 369.09374207 C255.33398145 369.091551 237.72033651 369.08488944 220.10668945 369.07543945 C202.99210636 369.06626674 185.87752451 369.05918522 168.76293945 369.05493164 C167.18171938 369.05453756 167.18171938 369.05453756 165.56855547 369.05413551 C160.28044896 369.05283051 154.99234244 369.0515668 149.70423591 369.05032361 C105.80282074 369.03994929 61.90141061 369.0223295 18 369 C18.01160156 369.91523438 18.02320312 370.83046875 18.03515625 371.7734375 C18.04417969 372.96195312 18.05320312 374.15046875 18.0625 375.375 C18.07410156 376.55835938 18.08570312 377.74171875 18.09765625 378.9609375 C18 382 18 382 17 384 C31.52 384 46.04 384 61 384 C61 384.33 61 384.66 61 385 C24.15752658 386.5766648 24.15752658 386.5766648 16 385 C14.61773984 382.23547967 14.90474613 379.9538637 14.9375 376.875 C14.94652344 375.77929688 14.95554687 374.68359375 14.96484375 373.5546875 C14.97644531 372.71164062 14.98804687 371.86859375 15 371 C10.91100593 369.63700198 6.90349791 369.62046091 2.6171875 369.37890625 C1.75351562 369.25386719 0.88984375 369.12882812 0 369 C-1.36311701 366.27376598 -1.12539182 364.131178 -1.12584114 361.07756138 C-1.12844889 359.80747339 -1.13105664 358.5373854 -1.13374341 357.22880989 C-1.13158101 355.80615002 -1.12932433 354.38349028 -1.12698364 352.96083069 C-1.12813481 351.45981494 -1.1297223 349.95879947 -1.13171089 348.45778459 C-1.13590487 344.31791468 -1.1338132 340.17806766 -1.13072467 336.03819764 C-1.12847105 331.57937277 -1.13195 327.12055197 -1.13470459 322.66172791 C-1.1391618 313.92060628 -1.138186 305.17949322 -1.13529195 296.43837125 C-1.13303758 289.33651698 -1.13272554 282.23466512 -1.13381577 275.13281059 C-1.133969 274.12371625 -1.13412223 273.11462191 -1.13428011 272.07494895 C-1.13459982 270.02526121 -1.13492403 267.97557347 -1.1352527 265.92588573 C-1.13810738 246.68505901 -1.13482072 227.44423704 -1.12945233 208.20341109 C-1.12498498 191.68028275 -1.12575968 175.15716142 -1.13037109 158.6340332 C-1.13571823 139.46566112 -1.13783198 120.29729322 -1.13475883 101.1289205 C-1.13444027 99.08628206 -1.1341259 97.04364361 -1.13381577 95.00100517 C-1.13366149 93.99588115 -1.13350721 92.99075712 -1.13334826 91.95517479 C-1.13248348 84.8592407 -1.13394518 77.76330925 -1.13629532 70.66737556 C-1.13909508 62.02347158 -1.13835133 53.37957667 -1.13301457 44.73567373 C-1.13037986 40.32222736 -1.12936864 35.90879616 -1.13266373 31.49534988 C-1.13563141 27.45948971 -1.13402591 23.42365884 -1.12868617 19.38780134 C-1.12756401 17.92348394 -1.12814876 16.4591641 -1.13056196 14.99484826 C-1.13357941 13.01266043 -1.12990263 11.03046572 -1.12584114 9.04827976 C-1.12567879 7.94475747 -1.12551644 6.84123517 -1.12534916 5.70427281 C-1 3 -1 3 0 0 Z M5 6 C5 124.14 5 242.28 5 364 C124.46 364 243.92 364 367 364 C367 245.86 367 127.72 367 6 C247.54 6 128.08 6 5 6 Z " fill="#342F13" transform="translate(56,64)"/>
<path d="M0 0 C121.44 0 242.88 0 368 0 C367.67 119.13 367.34 238.26 367 361 C366.67 361 366.34 361 366 361 C366 242.53 366 124.06 366 2 C245.88 2 125.76 2 2 2 C2.33 120.8 2.66 239.6 3 362 C7.29 362.33 11.58 362.66 16 363 C16 363.33 16 363.66 16 364 C10.39 364.33 4.78 364.66 -1 365 C-0.67 244.55 -0.34 124.1 0 0 Z " fill="#090802" transform="translate(58,67)"/>
<path d="M0 0 C122.76 0 245.52 0 372 0 C373.7213061 5.16391829 373.05353552 10.59291236 373 16 C377.95 16 382.9 16 388 16 C389.08085785 31.48072536 389.13553658 46.91218323 389.09871864 62.42365861 C389.09186931 65.64670263 389.08884671 68.86974693 389.08559561 72.09279627 C389.02696722 127.58886676 388.76847064 183.08511522 388.55461884 238.58076656 C388.51150495 249.77527749 388.46913449 260.96979106 388.42724609 272.16430664 C388.4242591 272.96251372 388.4212721 273.7607208 388.41819459 274.58311597 C388.40320063 278.59091261 388.38821855 282.59870929 388.37324238 286.60650599 C388.25066956 319.40434442 388.12605724 352.20217478 388 385 C383.9475189 385.86731651 380.23906425 386.12896447 376.0859375 386.1328125 C375.4102623 386.13413177 374.7345871 386.13545105 374.03843689 386.1368103 C371.8172454 386.13873307 369.59617885 386.13235991 367.375 386.125 C366.61520844 386.12411377 365.85541687 386.12322754 365.07260132 386.12231445 C347.70574421 386.09873389 330.35527348 385.59950233 313 385 C313 384.67 313 384.34 313 384 C337.42 384 361.84 384 387 384 C387 262.89 387 141.78 387 17 C381.72 17 376.44 17 371 17 C371 11.72 371 6.44 371 1 C248.9 1 126.8 1 1 1 C1 122.11 1 243.22 1 368 C6.28 368 11.56 368 17 368 C17 373.28 17 378.56 17 384 C31.52 384 46.04 384 61 384 C61 384.33 61 384.66 61 385 C24.15752658 386.5766648 24.15752658 386.5766648 16 385 C14.61773984 382.23547967 14.90474613 379.9538637 14.9375 376.875 C14.94652344 375.77929688 14.95554687 374.68359375 14.96484375 373.5546875 C14.97644531 372.71164062 14.98804687 371.86859375 15 371 C10.91100593 369.63700198 6.90349791 369.62046091 2.6171875 369.37890625 C1.75351562 369.25386719 0.88984375 369.12882812 0 369 C-1.36311701 366.27376598 -1.12539182 364.131178 -1.12584114 361.07756138 C-1.12844889 359.80747339 -1.13105664 358.5373854 -1.13374341 357.22880989 C-1.13158101 355.80615002 -1.12932433 354.38349028 -1.12698364 352.96083069 C-1.12813481 351.45981494 -1.1297223 349.95879947 -1.13171089 348.45778459 C-1.13590487 344.31791468 -1.1338132 340.17806766 -1.13072467 336.03819764 C-1.12847105 331.57937277 -1.13195 327.12055197 -1.13470459 322.66172791 C-1.1391618 313.92060628 -1.138186 305.17949322 -1.13529195 296.43837125 C-1.13303758 289.33651698 -1.13272554 282.23466512 -1.13381577 275.13281059 C-1.133969 274.12371625 -1.13412223 273.11462191 -1.13428011 272.07494895 C-1.13459982 270.02526121 -1.13492403 267.97557347 -1.1352527 265.92588573 C-1.13810738 246.68505901 -1.13482072 227.44423704 -1.12945233 208.20341109 C-1.12498498 191.68028275 -1.12575968 175.15716142 -1.13037109 158.6340332 C-1.13571823 139.46566112 -1.13783198 120.29729322 -1.13475883 101.1289205 C-1.13444027 99.08628206 -1.1341259 97.04364361 -1.13381577 95.00100517 C-1.13366149 93.99588115 -1.13350721 92.99075712 -1.13334826 91.95517479 C-1.13248348 84.8592407 -1.13394518 77.76330925 -1.13629532 70.66737556 C-1.13909508 62.02347158 -1.13835133 53.37957667 -1.13301457 44.73567373 C-1.13037986 40.32222736 -1.12936864 35.90879616 -1.13266373 31.49534988 C-1.13563141 27.45948971 -1.13402591 23.42365884 -1.12868617 19.38780134 C-1.12756401 17.92348394 -1.12814876 16.4591641 -1.13056196 14.99484826 C-1.13357941 13.01266043 -1.12990263 11.03046572 -1.12584114 9.04827976 C-1.12567879 7.94475747 -1.12551644 6.84123517 -1.12534916 5.70427281 C-1 3 -1 3 0 0 Z " fill="#BCBBB5" transform="translate(56,64)"/>
<path d="M0 0 C5.62131519 5.62131519 5.62131519 5.62131519 7.65625 8.57421875 C8.11459229 9.23244629 8.57293457 9.89067383 9.04516602 10.56884766 C9.52526123 11.26800293 10.00535645 11.9671582 10.5 12.6875 C11.56029933 14.2102615 12.6215289 15.73237561 13.68359375 17.25390625 C14.22870605 18.03652832 14.77381836 18.81915039 15.33544922 19.62548828 C18.04112303 23.48518078 20.79954784 27.3061951 23.5625 31.125 C24.36530396 32.23717896 24.36530396 32.23717896 25.18432617 33.37182617 C27.85510248 37.06481634 30.54446525 40.74239074 33.265625 44.3984375 C33.77923584 45.09050293 34.29284668 45.78256836 34.82202148 46.49560547 C35.79383302 47.80249698 36.76972242 49.10636901 37.75024414 50.40673828 C41 54.77838283 41 54.77838283 41 57 C27.47 57 13.94 57 0 57 C0 38.19 0 19.38 0 0 Z " fill="#F9DC46" transform="translate(180,217)"/>
<path d="M0 0 C0.33 0 0.66 0 1 0 C1 120.78 1 241.56 1 366 C6.28 366 11.56 366 17 366 C17 371.28 17 376.56 17 382 C31.52 382 46.04 382 61 382 C61 382.33 61 382.66 61 383 C24.15752658 384.5766648 24.15752658 384.5766648 16 383 C14.61773984 380.23547967 14.90474613 377.9538637 14.9375 374.875 C14.94652344 373.77929688 14.95554687 372.68359375 14.96484375 371.5546875 C14.97644531 370.71164062 14.98804687 369.86859375 15 369 C10.91100593 367.63700198 6.90349791 367.62046091 2.6171875 367.37890625 C1.75351562 367.25386719 0.88984375 367.12882812 0 367 C-1.36378264 364.27243472 -1.12539205 362.12705265 -1.12584114 359.07197475 C-1.12844889 357.80065337 -1.13105664 356.52933198 -1.13374341 355.2194857 C-1.13158101 353.7954478 -1.12932434 352.37141005 -1.12698364 350.94737244 C-1.1281348 349.4449313 -1.1297223 347.94249045 -1.13171089 346.44005018 C-1.13590483 342.29631905 -1.13381323 338.15261079 -1.13072467 334.00887954 C-1.12847108 329.54600292 -1.13194996 325.08313035 -1.13470459 320.62025452 C-1.1391616 311.87178288 -1.13818615 303.1233198 -1.13529195 294.37484782 C-1.13303779 287.26820901 -1.13272545 280.16157261 -1.13381577 273.05493355 C-1.133969 272.04526176 -1.13412223 271.03558997 -1.13428011 269.99532207 C-1.13459982 267.94450286 -1.13492403 265.89368366 -1.1352527 263.84286446 C-1.13810725 244.59256048 -1.13482078 225.34226125 -1.12945233 206.09195805 C-1.12498364 189.55568775 -1.12576081 173.01942447 -1.13037109 156.4831543 C-1.13571612 137.30234952 -1.13783328 118.12154892 -1.13475883 98.94074351 C-1.13444026 96.89757923 -1.13412589 94.85441496 -1.13381577 92.81125069 C-1.13366149 91.80584524 -1.13350721 90.80043979 -1.13334826 89.76456751 C-1.13248294 82.66168247 -1.13394629 75.55880008 -1.13629532 68.45591545 C-1.1390927 59.80683058 -1.13835635 51.1577548 -1.13301457 42.50867098 C-1.13037682 38.09142188 -1.12937375 33.67418794 -1.13266373 29.25693893 C-1.13562513 25.21994979 -1.13403651 21.18299 -1.12868617 17.14600355 C-1.12756133 15.67902996 -1.12815465 14.21205394 -1.13056196 12.74508189 C-1.13356549 10.76411762 -1.12991286 8.78314648 -1.12584114 6.8021841 C-1.12567879 5.69790237 -1.12551644 4.59362063 -1.12534916 3.45587581 C-1 1 -1 1 0 0 Z " fill="#9C9886" transform="translate(56,66)"/>
<path d="M0 0 C0.33 0 0.66 0 1 0 C1.00173625 0.75464173 1.0034725 1.50928345 1.00526136 2.28679311 C1.10819306 46.97019001 1.21628462 91.65357185 1.33111694 136.33693983 C1.34488723 141.69695719 1.35861422 147.05697465 1.37231445 152.41699219 C1.37504276 153.48411704 1.37777106 154.55124189 1.38058204 155.65070386 C1.42470894 172.95053824 1.46532467 190.25037919 1.50465261 207.55022506 C1.54505658 225.28917946 1.58921099 243.02812163 1.63687855 260.76705801 C1.66619481 271.72111352 1.69255308 282.67516806 1.71517897 293.62923945 C1.73095448 301.1313744 1.75035867 308.63349437 1.77266841 316.13561271 C1.78544899 320.46993006 1.79657987 324.80423583 1.80341911 329.13856697 C1.80970678 333.10106442 1.82051668 337.06352199 1.8350333 341.02599759 C1.83948634 342.4647811 1.84223217 343.90357104 1.84316199 345.34236114 C1.84466062 347.28775062 1.85279824 349.2331317 1.8613348 351.17850304 C1.86399284 352.26222486 1.86665089 353.34594668 1.86938947 354.46250856 C1.82977341 356.99341764 1.82977341 356.99341764 3 359 C6.04581269 359.46954261 6.04581269 359.46954261 9.5625 359.625 C10.76003906 359.69976562 11.95757812 359.77453125 13.19140625 359.8515625 C14.11824219 359.90054687 15.04507813 359.94953125 16 360 C16 360.33 16 360.66 16 361 C10.39 361.33 4.78 361.66 -1 362 C-0.67 242.54 -0.34 123.08 0 0 Z " fill="#000000" transform="translate(58,70)"/>
<path d="M0 0 C0.33 0 0.66 0 1 0 C1 18.48 1 36.96 1 56 C6.28 56 11.56 56 17 56 C17 61.28 17 66.56 17 72 C31.52 72 46.04 72 61 72 C61 72.33 61 72.66 61 73 C24.15752658 74.5766648 24.15752658 74.5766648 16 73 C14.61773984 70.23547967 14.90474613 67.9538637 14.9375 64.875 C14.94652344 63.77929688 14.95554687 62.68359375 14.96484375 61.5546875 C14.97644531 60.71164062 14.98804687 59.86859375 15 59 C10.91100593 57.63700198 6.90349791 57.62046091 2.6171875 57.37890625 C1.32167969 57.19134766 1.32167969 57.19134766 0 57 C-1.29424958 54.41150084 -1.08124712 52.620693 -1.02172852 49.72412109 C-0.99158409 48.07263565 -0.99158409 48.07263565 -0.96083069 46.38778687 C-0.93379562 45.19505157 -0.90676056 44.00231628 -0.87890625 42.7734375 C-0.85529526 41.55548492 -0.83168427 40.33753235 -0.80735779 39.08267212 C-0.73058376 35.18000019 -0.64661843 31.27751988 -0.5625 27.375 C-0.50929309 24.73438448 -0.45655261 22.09375952 -0.40429688 19.453125 C-0.27495004 12.9686306 -0.13969354 6.48427931 0 0 Z " fill="#B1B0A6" transform="translate(56,376)"/>
<path d="M0 0 C1.32 1.32 2.64 2.64 4 4 C3.67 4.66 3.34 5.32 3 6 C2.34 6 1.68 6 1 6 C1 22.5 1 39 1 56 C13.54 56 26.08 56 39 56 C39.495 55.01 39.495 55.01 40 54 C40.33 54.99 40.66 55.98 41 57 C27.47 57 13.94 57 0 57 C0 38.19 0 19.38 0 0 Z " fill="#EBD343" transform="translate(180,217)"/>
</svg>
